<svg xmlns="http://www.w3.org/2000/svg" version="1.1" xmlns:xlink="http://www.w3.org/1999/xlink" width="512" height="512" x="0" y="0" viewBox="0 0 48 48" style="enable-background:new 0 0 512 512" xml:space="preserve" class=""><circle r="24" cx="24" cy="24" fill="#ffa01a" shape="circle" transform="matrix(0.76,0,0,0.76,5.759999999999998,5.759999999999998)"></circle><g transform="matrix(0.7,0,0,0.7,7.200000000000003,7.199643301963807)"><path d="M36 9h-.22l-.63-2.52A2 2 0 0 0 33.31 5l-18.4-1a2 2 0 0 0-2.06 1.61L12.18 9H12a2 2 0 0 0-2 2v3a2 2 0 0 0 2 2h.1L15 43.11a1 1 0 0 0 1 .89h16a1 1 0 0 0 1-.89L35.9 16h.1a2 2 0 0 0 2-2v-3a2 2 0 0 0-2-2zM14.81 6l18.4 1 .51 2h-19.5zM31.1 42H16.9l-2.79-26h19.78zM35 14H12v-3h24v3z" fill="#000000" opacity="1" data-original="#000000"></path></g></svg>